<svg xmlns="http://www.w3.org/2000/svg" viewBox="0 0 263.8 61.08"><defs><style>.cls-1{fill:#003243;}.cls-2{fill:#e8380d;}</style></defs><polygon class="cls-1" points="112.99 0 99.64 0 99.56 0 89.12 18.44 85.35 0.17 85.31 0 71.82 0 79.08 35.21 79.09 35.21 79.09 35.24 73.88 61.08 88.01 61.08 92.74 36.96 92.85 36.54 93.22 35.21 93.24 35.21 106.53 11.51 113.05 0 112.99 0"/><polygon class="cls-1" points="32.17 0.01 12.19 0.01 0 61.09 11.94 61.09 22.07 16.9 22.07 61.09 31.93 61.09 51.54 16.73 42.69 61.09 54.63 61.09 66.82 0.01 47 0.01 31.88 37.51 32.17 0.01"/><polygon class="cls-2" points="127.67 24.42 130.64 10.47 150.91 10.47 153.08 0.01 132.86 0.01 132.86 0 118.87 0 105.85 61.09 119.85 61.09 125.44 34.89 143.69 34.89 145.97 24.42 127.67 24.42"/><polygon class="cls-1" points="203.79 0.01 190.53 61.08 204.21 61.08 217.47 0.01 203.79 0.01"/><path class="cls-1" d="M172.22,70.53l4.65-11.67H191V70.54h11.27V9.47H183.65l-24.3,61.06ZM191,23.34V49.45H180.61Z" transform="translate(-17.66 -9.46)"/><path class="cls-1" d="M268.38,9.47H245.46L232.2,70.54h13.67l5.38-24.75,1.14,0,.24.42,9.7,24.38h12.9L265,44.87l.53-.27c6.93-3.48,9.05-6.07,10.6-8l.38-.46a20.16,20.16,0,0,0,4.83-11.77c0-.16.91-6.75-2.84-11.08C276.31,10.77,272.89,9.47,268.38,9.47Zm-2.66,20.87a8.45,8.45,0,0,1-8.26,5.28,16,16,0,0,1-3.25-.36l-.64-.13,3.37-15.55.37-.11a8,8,0,0,1,2.25-.32,7.68,7.68,0,0,1,4.51,1.44C267.12,22.73,267.21,27.12,265.72,30.34Z" transform="translate(-17.66 -9.46)"/></svg>